PathFileType	4	(X/Y/Z)	Patient4_TMGait_0pt5_02_left_41.trc.trc
DataRate	CameraRate	NumFrames	NumMarkers	Units	OrigDataRate	OrigDataStartFrame	OrigNumFrames
76.923076923077	76.923076923077	7	33	mm	76.923076923077	89	       141
Frame#	Time	Sacral			L.Shoulder			Chest			R.Shoulder			Neck			R.ASIS			L.ASIS			R.Thigh.Superior			R.Thigh.Lateral			R.Thigh.Inferior			R.Patella			L.Thigh.Superior			L.Thigh.Lateral			L.Thigh.Inferior			L.Patella			L.Shank.Superior			L.Shank.Lateral			L.Shank.Inferior			R.Shank.Superior			R.Shank.Lateral			R.Shank.Inferior			R.Heel			R.Midfoot.Superior			R.Midfoot.Lateral			R.Toe			L.Heel			L.Midfoot.Lateral			L.Midfoot.Superior			L.Toe			L.Elbow			L.Wrist			R.Elbow			R.Wrist			
		X1	Y1	Z1	X2	Y2	Z2	X3	Y3	Z3	X4	Y4	Z4	X5	Y5	Z5	X6	Y6	Z6	X7	Y7	Z7	X8	Y8	Z8	X9	Y9	Z9	X10	Y10	Z10	X11	Y11	Z11	X12	Y12	Z12	X13	Y13	Z13	X14	Y14	Z14	X15	Y15	Z15	X16	Y16	Z16	X17	Y17	Z17	X18	Y18	Z18	X19	Y19	Z19	X20	Y20	Z20	X21	Y21	Z21	X22	Y22	Z22	X23	Y23	Z23	X24	Y24	Z24	X25	Y25	Z25	X26	Y26	Z26	X27	Y27	Z27	X28	Y28	Z28	X29	Y29	Z29	X30	Y30	Z30	X31	Y31	Z31	X32	Y32	Z32	X33	Y33	Z33	

89	54.034000000000	700.800712299664	1008.231828855245	477.550988313099	898.278481748401	1429.912293931639	301.197426746916	984.006511392469	1362.025486065745	472.350934241863	884.679500240963	1440.737393765139	636.524113303112	884.211116957758	1493.475769694551	449.805489575499	922.385760576043	935.806358124992	605.628315021349	922.382124548731	960.711666211531	331.994459497339	984.554035498325	747.283296641632	567.568574684619	915.126564379134	630.989662615890	625.956263178859	998.627877854589	586.665890069346	545.664994846332	1010.390411674328	494.830850290523	551.624006625360	935.571081410381	734.579897702404	350.483547819127	829.569903908124	633.105827293579	286.926716552895	901.261063249261	539.371867250040	344.791198768796	887.512867025981	459.259862383107	344.744062158555	827.358822390647	401.945236091199	339.185049156452	695.820028205921	338.217812360194	287.836151660420	697.854627291042	211.135496562929	350.736876140362	980.302706916191	405.705303496196	558.056361412140	909.564176266377	301.733671837226	618.733681536822	951.117892634344	207.032414475027	556.326267177319	817.923565123985	43.188438188571	525.933016321537	988.144975132371	97.772186693266	563.390461365544	900.226811521701	36.970222167036	601.625413748905	1108.485101223888	43.805115137510	593.750686771425	518.155731230488	110.102061301260	386.501132988375	588.428985839892	72.819396016479	313.425149826007	686.183246573967	108.758008389926	336.894809404611	789.268986813553	34.226463875690	325.284095721152	897.929635338143	1081.947947691822	166.983219522298	1141.216610679395	996.962279855296	164.754235152831	752.837713769815	1118.920476416083	741.923717858508	786.244235772432	859.206309357124	741.200128953334	
90	54.047000000000	700.869144780307	1008.948941419740	481.132937325701	897.254078661303	1431.037651970400	304.261842280714	984.695568207213	1362.225794669733	474.249797255161	887.292389087555	1440.377188652822	639.801646030745	884.845122718175	1494.041954756662	453.282199095579	923.265751925308	935.955658194467	607.170439872949	921.419671584309	961.343672541079	333.613335570934	983.439930733657	746.157622443908	570.337599319982	912.243051433361	630.937134834924	627.994293936939	995.494661242494	585.923072997329	547.793302591726	1006.193936170773	494.210910920244	553.450110563596	939.089656759409	736.356503940237	352.329135265845	836.469223925120	632.608192899745	288.360338568889	910.939169568814	540.019628289414	345.886515108095	897.971027535284	458.570008317205	344.903443877127	835.523367044594	401.769266185775	339.772749153590	701.863014325872	342.634411392492	288.606323195480	700.168318464258	215.400657540719	350.816256027623	975.723859961982	405.302861442426	559.573617420209	904.395846645833	301.503779847676	619.684145416297	945.586660997545	206.814221052617	557.072858072833	811.509626540563	43.360065177077	526.026968278380	981.934882205052	97.619207312059	563.638781071646	893.801818392832	36.973216141054	601.694987742106	1102.158889956146	43.016175687272	593.941985569692	517.059079615972	122.172916064216	386.131644159884	585.480986588356	81.341127220644	313.198318937846	684.821127393079	112.558764101365	336.525519516740	783.395810545019	33.290673168575	325.223851495257	892.628097169677	1082.308172438665	171.405792734636	1131.591470024621	984.446238416711	168.487396639938	763.222326032357	1115.155483306901	746.869800585616	806.607420621891	856.996179293129	745.687618077274	
91	54.060000000000	700.678480901614	1009.631961794321	484.578052344665	896.066081431238	1432.115650620631	307.228406880789	985.232145229873	1362.307626887657	475.985036044543	889.843826349855	1439.878494814582	642.953200080620	885.365653810019	1494.528384513731	456.677660712922	923.911958454921	936.131412330311	608.585187291996	920.104228331363	961.813052727967	335.091006456896	982.092982010921	745.139634196040	573.040587074504	909.277469195521	630.964809818190	630.035565598782	992.251774825515	585.270743191138	549.913846839545	1001.873215966986	493.678069455272	555.368575081136	942.646543481287	738.381957564087	354.301091293571	843.862634547543	632.273527702472	289.696923459989	921.070175471678	541.056546909875	347.112311414665	908.958395049099	458.278542636956	345.303383217247	844.373546620271	401.879855512543	340.487224630354	708.798736884761	347.391360191138	289.382675330104	703.215268321926	220.228085120220	351.069611200550	971.058418217473	404.968219205743	561.166983892688	899.132804962259	301.327968963687	620.672199448290	940.027811062817	206.654219751436	557.899147334476	805.081550028642	43.573537606474	526.149139513950	975.727885325479	97.487490973270	563.934989773989	887.368538626583	36.985866266042	601.782383801321	1095.810476403925	42.245817895058	594.144732237943	516.944211505271	135.130843493814	385.946368082425	583.340365454088	90.907771711361	313.059148466076	684.116121761693	117.181795048598	336.316537499973	777.966153178785	32.452111553211	325.037224277881	887.285415845382	1082.672208508587	175.773650449911	1120.861413154378	971.313675848180	172.184320747994	774.442405278814	1111.298243740860	751.914270096612	827.673505966270	855.045843523484	750.179320900907	
92	54.073000000000	700.228266344244	1010.295153867228	487.861487208429	894.729070526365	1433.145010196295	310.067076024342	985.596944638796	1362.293534011899	477.550916263706	892.274182321207	1439.275821037762	645.938968356030	885.775425893144	1494.950187825345	459.949486325933	924.310904641851	936.363504041776	609.874105702527	918.416569285311	962.131670655124	336.436980292131	980.512461790568	744.265358853709	575.607522175232	906.239551582274	631.067416623456	632.025773426117	988.909197242654	584.716434609299	551.968604771025	997.447494099925	493.235787503946	557.291273156175	946.133082546894	740.688976026860	356.376939478564	851.574424035346	632.206916272316	290.933071567734	931.440229108597	542.571910595675	348.444309095664	920.297104718739	458.490041154899	345.916879021748	853.759685422610	402.358743302036	341.299681072481	716.481285448687	352.454928852080	290.179481302065	706.974875127260	225.549589875055	351.489546868180	966.320375331058	404.707359909920	562.769658819624	893.798208524383	301.222187872963	621.669092134331	934.445011218837	206.559036552013	558.765909468149	798.646061435098	43.826669892534	526.298084591401	969.520397556127	97.387762296744	564.268032379769	880.932011202503	37.011762109401	601.884657888338	1089.439334352170	41.534539174986	594.356992001007	517.882270057874	148.607387450177	386.002785047926	582.144252762002	101.271165621484	313.038964932678	684.167405513871	122.567779797982	336.262448788390	773.225548558674	31.863181182000	324.694966504628	881.930077528161	1083.022905025370	180.086964514287	1108.933480388630	957.701355723752	175.830197539573	786.470339753903	1107.438626074954	756.954820305732	849.381597134481	853.432379610216	754.610280908219	
93	54.086000000000	699.537318542707	1010.955628716288	490.971024202198	893.257979959636	1434.130417351222	312.752064652735	985.778381199230	1362.217249581456	478.946096208257	894.535027858272	1438.614938143493	648.727966134973	886.079370458568	1495.329319080208	463.058438926212	924.456994643382	936.672930525586	611.038215557118	916.360209165326	962.329965599712	337.666474113395	978.694801641310	743.546169725512	577.983101309400	903.113010693740	631.232902061578	633.913644647532	985.450510931826	584.254974064138	553.903742999803	992.907814542416	492.882064205155	559.129449740465	949.442193853813	743.299406282406	358.515081008022	859.405035176556	632.503683301050	292.061391583789	941.824887616676	544.635926778589	349.833243405711	931.800187933943	459.293253041234	346.682534957869	863.524062614375	403.275494749447	342.161064203827	724.746775746323	357.754363180685	291.004219127043	711.442237946551	231.240057487938	352.052492708478	961.501004471918	404.522700002590	564.314179821093	888.397208867139	301.195246318190	622.643839217827	928.830399403084	206.531256072165	559.631241109234	792.206841865624	44.114069921078	526.469630799596	963.306795207870	97.324295730223	564.621578351109	874.493854252128	37.051856306954	601.996929473542	1083.044239206539	40.911897490886	594.574252467462	519.932874067829	162.124983289810	386.341517770072	582.040452623667	112.067234745380	313.160151417393	685.103424726049	128.565755786382	336.345326273227	769.484025125726	31.684822770923	324.176783667852	876.579532620777	1083.352304083651	184.345881659452	1095.725486093214	943.786358225712	179.412086916452	799.243908358000	1103.687341487854	761.880130970457	871.657649959544	852.255327540274	758.906342050577	
94	54.099000000000	698.637067298442	1011.632923104146	493.903883046625	891.671252632383	1435.079844624943	315.262893736657	985.774973200960	1362.117222345914	480.173284251004	896.595427754091	1437.948725332974	651.299156525068	886.285084499617	1495.690967688549	465.970013184883	924.350090276220	937.068666826415	612.080084186703	913.965115421281	962.453931473468	338.797085229290	976.634456163162	742.972260102914	580.126705777211	899.867652112029	631.446914243302	635.655842021105	981.840421512512	583.871557798048	555.670310149934	988.223595366795	492.610782607904	560.802495118558	952.477802973894	746.221566971279	360.660209094056	867.149278660105	633.238352539216	293.072228717334	952.007185956970	547.292427808760	351.212663750587	943.282321052394	460.753951667425	347.517132517680	873.513786453035	404.678702810650	343.011509625862	733.432033830059	363.178000275965	291.854000783521	716.634317128177	237.119196008298	352.720200323410	956.575041838308	404.413109814878	565.739135626366	882.921376631807	301.248447071986	623.566318807322	923.167788414057	206.569333370281	560.455438053284	785.764232439499	44.427449159482	526.657780774626	957.080382119248	97.295998194686	564.977305271155	868.052714332403	37.104758398497	602.113988486485	1076.623821854267	40.395161324763	594.790506918232	523.146160517655	175.128920275681	386.974906819497	583.183997946948	122.837267454565	313.429236108949	687.079215355874	134.938248911303	336.535071078622	767.106316866621	32.053845984012	323.473854735253	871.238268865518	1083.661971316244	188.548302593759	1081.173882996550	929.782043946421	182.919277235770	812.668122644583	1100.168074822989	766.579221251871	894.412744042933	851.632663219515	762.986527416176	
95	54.112000000000	697.562223346945	1012.347839086269	496.662511627526	889.992777584822	1436.001077771918	317.584634960277	985.596382695286	1362.029760381169	481.238356014213	898.445026979373	1437.331987054381	653.640249765684	886.402986668449	1496.059506473549	468.655343253686	923.993744140481	937.546047885719	613.005253101781	911.287240849773	962.560301104660	339.844946368401	974.325925458077	742.518111417591	582.009960962439	896.470143963951	631.696015816543	637.220000404257	978.033292051118	583.545267721259	557.224434488950	983.351266961501	492.412891529455	562.243403021770	955.163950280509	749.449527242653	362.750402911659	874.614989706088	634.456668187818	293.957061741699	961.793738879889	550.554506362433	352.510663556364	954.569484877215	462.910030964103	348.332457479945	883.590861545536	406.589236044667	343.791909123922	742.391234539338	368.574170702277	292.713578334561	722.590675575927	242.960485232002	353.443063086849	951.507702214475	404.374020445086	566.993712377326	877.354332453580	301.375482503085	624.409857451180	917.436556929173	206.667883698799	561.204545189513	779.315582661685	44.755906433736	526.855386025637	950.834267529663	97.297775227866	565.317746466656	861.605200371439	37.167264976312	602.231470122303	1070.177209201905	39.989784506148	594.999353512644	527.566364090870	187.031560782872	387.878633105999	585.732094909824	133.063113295382	313.831515473702	690.268638028788	141.378433396618	336.790805560097	766.489514903016	33.046227917692	322.590362099822	865.896633965776	1083.961439531931	192.687777676294	1065.242740846225	915.929995941902	186.342889101541	826.618677621512	1097.008416629558	770.951468584166	917.543167226823	851.694764848093	766.767033166221	
